<svg width="24" height="24" viewBox="0 0 24 24" fill="none" xmlns="http://www.w3.org/2000/svg">
<g id="Checked=not checked">
<path id="Vector" d="M2.5 12C2.5 9.62884 2.50106 7.90077 2.6786 6.58026C2.8542 5.27414 3.19417 4.44187 3.81802 3.81802C4.44187 3.19417 5.27414 2.8542 6.58026 2.6786C7.90077 2.50106 9.62884 2.5 12 2.5C14.3712 2.5 16.0992 2.50106 17.4197 2.6786C18.7259 2.8542 19.5581 3.19417 20.182 3.81802C20.8058 4.44187 21.1458 5.27414 21.3214 6.58026C21.4989 7.90077 21.5 9.62884 21.5 12C21.5 14.3712 21.4989 16.0992 21.3214 17.4197C21.1458 18.7259 20.8058 19.5581 20.182 20.182C19.5581 20.8058 18.7259 21.1458 17.4197 21.3214C16.0992 21.4989 14.3712 21.5 12 21.5C9.62884 21.5 7.90077 21.4989 6.58026 21.3214C5.27414 21.1458 4.44187 20.8058 3.81802 20.182C3.19417 19.5581 2.8542 18.7259 2.6786 17.4197C2.50106 16.0992 2.5 14.3712 2.5 12Z" fill="white" stroke="#98A2B3"/>
</g>
</svg>
