<svg width="24" height="24" viewBox="0 0 24 24" fill="none" xmlns="http://www.w3.org/2000/svg">
<g id="Logo">
<path id="Path" d="M7.39912 23.9057C7.27971 23.853 7.09299 23.6916 6.98419 23.547C6.72879 23.2075 6.70658 22.6669 6.93489 22.3465C7.10525 22.1073 7.59295 21.6193 14.2254 15.0519C20.8141 8.52777 21.1391 8.1939 21.4087 7.67321C22.1743 6.19435 21.9094 4.46938 20.7321 3.26619C19.6078 2.11728 17.9596 1.84117 16.5198 2.56057C16.0817 2.77947 15.7891 3.00489 15.1576 3.60971C14.5348 4.20628 14.2961 4.39094 14.0991 4.4284C13.2304 4.59361 12.5477 3.72719 12.8942 2.89924C13.0038 2.63737 14.2737 1.36657 14.7699 1.02215C15.2365 0.698334 16.1499 0.279639 16.7299 0.123725C17.1035 0.0233223 17.4438 -0.00532484 18.1909 0.000781117C19.0289 0.00744518 19.2504 0.0347679 19.7776 0.195297C20.8035 0.507658 21.4219 0.875307 22.2165 1.64531C23.3769 2.76968 24 4.24155 24 5.85807C24 7.13666 23.6835 8.22402 23.0201 9.22418C22.6713 9.75006 22.4086 10.0186 16.7647 15.6202C14.9472 17.424 12.3488 20.0049 10.9904 21.3554C9.63206 22.706 8.41993 23.8551 8.2968 23.909C8.01711 24.0315 7.68136 24.0303 7.39912 23.9057ZM2.81589 20.5484C2.03862 20.3869 1.50208 20.0874 0.962992 19.5144C0.316812 18.8275 -0.00292966 18.0258 2.02243e-05 17.1001C0.00248531 16.4338 0.0863511 16.057 0.363623 15.4731C0.550534 15.0795 0.798315 14.7972 2.11602 13.4762C2.96011 12.6301 3.75147 11.8922 3.8746 11.8364C4.7417 11.4441 5.68074 12.3076 5.35091 13.194C5.31023 13.3032 4.59323 14.0908 3.7575 14.9442C2.28782 16.4449 2.23631 16.507 2.18753 16.8378C2.04075 17.8334 2.85559 18.5959 3.8068 18.3531C4.09275 18.2801 4.35402 18.0453 6.4101 16.0134L8.69553 13.7549L9.29219 12.7075C9.62037 12.1315 9.95938 11.6134 10.0455 11.5561C10.1317 11.4989 10.5908 11.2912 11.0659 11.0945C11.5409 10.8978 11.9667 10.7208 12.012 10.7013C12.0574 10.6817 12.2745 10.2347 12.4946 9.70802C12.7146 9.18129 12.9593 8.67457 13.0383 8.58198C13.1241 8.48127 13.5872 8.24733 14.1906 7.99983L15.1994 7.58603L15.582 6.67575C16.0359 5.596 16.1374 5.42877 16.4349 5.27114C17.1458 4.89446 18.017 5.4185 18.017 6.22283C18.017 6.59295 17.0419 8.94618 16.7796 9.20916C16.6697 9.31931 16.2127 9.55047 15.6864 9.76208C15.1889 9.96209 14.746 10.1558 14.7021 10.1926C14.6582 10.2293 14.4455 10.6824 14.2295 11.1995C14.0135 11.7165 13.7583 12.2152 13.6625 12.3076C13.5667 12.4001 13.0317 12.6662 12.4735 12.8989L11.4587 13.3221L10.9637 14.1883C10.4969 15.0051 10.3991 15.1239 9.25114 16.2689C5.68958 19.8215 5.53873 19.9638 5.09503 20.1901C4.34961 20.5702 3.53617 20.6981 2.81589 20.5484ZM6.07002 11.5876C5.90833 11.5064 5.71266 11.3361 5.6352 11.209C5.46828 10.9352 5.44771 10.409 5.59279 10.1246C5.64694 10.0184 6.90935 8.72169 8.39816 7.24297C11.2989 4.36186 11.3505 4.32075 11.9243 4.42989C12.2854 4.49853 12.6236 4.82757 12.7303 5.21381C12.899 5.82451 12.8458 5.90118 10.9356 7.80436C7.34071 11.386 7.07402 11.638 6.82486 11.688C6.47164 11.759 6.38995 11.7481 6.07002 11.5876Z" fill="#1570EF"/>
</g>
</svg>
