<svg width="16" height="16" viewBox="0 0 16 16" fill="none" xmlns="http://www.w3.org/2000/svg">
<g id="Bold / Arrows / Refresh">
<g id="Union">
<path d="M8.05324 1.5C4.85758 1.5 2.2305 3.942 1.97435 7.05556H1.334C1.13141 7.05556 0.948844 7.1778 0.871685 7.36512C0.794525 7.55244 0.838024 7.76781 0.981838 7.9105L2.10171 9.02161C2.29665 9.21502 2.6111 9.21502 2.80604 9.02161L3.92591 7.9105C4.06972 7.76781 4.11322 7.55244 4.03606 7.36512C3.9589 7.1778 3.77634 7.05556 3.57375 7.05556H2.97852C3.23166 4.50111 5.40384 2.5 8.05324 2.5C9.8996 2.5 11.5158 3.4723 12.411 4.92853C12.5557 5.16377 12.8636 5.23723 13.0988 5.09261C13.3341 4.94799 13.4076 4.64005 13.2629 4.40481C12.192 2.66285 10.2589 1.5 8.05324 1.5Z" fill="#101828"/>
<path d="M13.8947 6.97772C13.7 6.7852 13.3866 6.7852 13.1918 6.97772L12.0676 8.08883C11.9234 8.23137 11.8796 8.44688 11.9566 8.63444C12.0337 8.82199 12.2163 8.94444 12.4191 8.94444H13.0185C12.7643 11.4975 10.5846 13.5 7.92249 13.5C6.06749 13.5 4.44456 12.5269 3.54596 11.0707C3.40093 10.8358 3.09287 10.7628 2.85787 10.9078C2.62288 11.0529 2.54994 11.3609 2.69496 11.5959C3.77003 13.338 5.71002 14.5 7.92249 14.5C11.1277 14.5 13.7656 12.0595 14.0227 8.94444H14.6674C14.8702 8.94444 15.0529 8.82199 15.1299 8.63444C15.207 8.44688 15.1631 8.23137 15.0189 8.08883L13.8947 6.97772Z" fill="#101828"/>
</g>
</g>
</svg>