<svg width="78" height="13" viewBox="0 0 78 13" fill="none" xmlns="http://www.w3.org/2000/svg">
<path id="Vector 2" opacity="0.2" d="M6.85931 1.74221L5.10931 2.72344C1.95385 4.49271 0 7.82827 0 11.4459V13H94V11.4459C94 7.82827 92.0461 4.49271 88.8907 2.72344L87.1407 1.74221C84.1027 0.0388165 80.3973 0.0388165 77.3593 1.74221L75.3907 2.84602C72.3527 4.54942 68.6473 4.54942 65.6093 2.84602L63.6407 1.74221C60.6027 0.0388165 56.8973 0.0388165 53.8593 1.74221L51.8907 2.84602C48.8527 4.54942 45.1473 4.54942 42.1093 2.84602L40.1407 1.74221C37.1027 0.0388165 33.3973 0.0388165 30.3593 1.74221L28.3907 2.84602C25.3527 4.54942 21.6473 4.54942 18.6093 2.84602L16.6407 1.74221C13.6027 0.0388165 9.89729 0.0388165 6.85931 1.74221Z" fill="#175CD3"/>
</svg>
