<svg width="80" height="13" viewBox="0 0 80 13" fill="none" xmlns="http://www.w3.org/2000/svg">
<path id="Vector 1" d="M-0.140688 1.74221L-1.89069 2.72344C-5.04615 4.49271 -7 7.82827 -7 11.4459V13H87V11.4459C87 7.82827 85.0461 4.49271 81.8907 2.72344L80.1407 1.74221C77.1027 0.0388165 73.3973 0.0388165 70.3593 1.74221L68.3907 2.84602C65.3527 4.54942 61.6473 4.54942 58.6093 2.84602L56.6407 1.74221C53.6027 0.0388165 49.8973 0.0388165 46.8593 1.74221L44.8907 2.84602C41.8527 4.54942 38.1473 4.54942 35.1093 2.84602L33.1407 1.74221C30.1027 0.0388165 26.3973 0.0388165 23.3593 1.74221L21.3907 2.84602C18.3527 4.54942 14.6473 4.54942 11.6093 2.84602L9.64069 1.74221C6.60271 0.0388165 2.89729 0.0388165 -0.140688 1.74221Z" fill="#175CD3"/>
</svg>
