<svg width="16" height="16" viewBox="0 0 16 16" stroke="currentColor" fill="none" xmlns="http://www.w3.org/2000/svg">
<g id="Linear / Settings, Fine Tuning / Widget ">
<path id="Rectangle 1880" d="M1.66602 4.33268C1.66602 3.0756 1.66602 2.44706 2.05654 2.05654C2.44706 1.66602 3.0756 1.66602 4.33268 1.66602C5.58976 1.66602 6.2183 1.66602 6.60882 2.05654C6.99935 2.44706 6.99935 3.0756 6.99935 4.33268C6.99935 5.58976 6.99935 6.2183 6.60882 6.60882C6.2183 6.99935 5.58976 6.99935 4.33268 6.99935C3.0756 6.99935 2.44706 6.99935 2.05654 6.60882C1.66602 6.2183 1.66602 5.58976 1.66602 4.33268Z" stroke="currentColor" stroke-width="1.25"/>
<path id="Rectangle 1884" d="M9 11.6667C9 10.4096 9 9.78105 9.39052 9.39052C9.78105 9 10.4096 9 11.6667 9C12.9237 9 13.5523 9 13.9428 9.39052C14.3333 9.78105 14.3333 10.4096 14.3333 11.6667C14.3333 12.9237 14.3333 13.5523 13.9428 13.9428C13.5523 14.3333 12.9237 14.3333 11.6667 14.3333C10.4096 14.3333 9.78105 14.3333 9.39052 13.9428C9 13.5523 9 12.9237 9 11.6667Z" stroke="currentColor" stroke-width="1.25"/>
<path id="Rectangle 1883" d="M1.66602 11.6667C1.66602 10.4096 1.66602 9.78105 2.05654 9.39052C2.44706 9 3.0756 9 4.33268 9C5.58976 9 6.2183 9 6.60882 9.39052C6.99935 9.78105 6.99935 10.4096 6.99935 11.6667C6.99935 12.9237 6.99935 13.5523 6.60882 13.9428C6.2183 14.3333 5.58976 14.3333 4.33268 14.3333C3.0756 14.3333 2.44706 14.3333 2.05654 13.9428C1.66602 13.5523 1.66602 12.9237 1.66602 11.6667Z" stroke="currentColor" stroke-width="1.25"/>
<path id="Rectangle 1881" d="M9 4.33268C9 3.0756 9 2.44706 9.39052 2.05654C9.78105 1.66602 10.4096 1.66602 11.6667 1.66602C12.9237 1.66602 13.5523 1.66602 13.9428 2.05654C14.3333 2.44706 14.3333 3.0756 14.3333 4.33268C14.3333 5.58976 14.3333 6.2183 13.9428 6.60882C13.5523 6.99935 12.9237 6.99935 11.6667 6.99935C10.4096 6.99935 9.78105 6.99935 9.39052 6.60882C9 6.2183 9 5.58976 9 4.33268Z" stroke="currentColor" stroke-width="1.25"/>
</g>
</svg>
